<?xml version="1.0" encoding="utf-8" ?>
<svg baseProfile="full" height="1024" version="1.1" width="1024" xmlns="http://www.w3.org/2000/svg" xmlns:ev="http://www.w3.org/2001/xml-events" xmlns:xlink="http://www.w3.org/1999/xlink"><defs /><g fill="#fefefe" id="layer_0_fefefe" stroke="none"><path d="M 568.50,882.00 L 617.00,877.50 L 662.00,868.50 L 703.00,855.50 L 751.00,833.50 L 805.00,800.50 L 844.00,770.50 L 874.50,742.00 L 907.50,704.00 L 800.50,616.00 L 835.50,576.00 L 832.50,561.00 L 802.50,513.00 L 802.50,506.00 L 821.50,463.00 L 829.00,458.50 L 885.00,446.50 L 894.50,440.00 L 896.50,434.00 L 896.50,369.00 L 886.00,361.50 L 825.00,346.50 L 807.50,305.00 L 809.50,296.00 L 843.50,245.00 L 843.50,232.00 L 800.00,187.50 L 794.00,185.50 L 784.00,187.50 L 734.00,222.50 L 724.00,223.50 L 674.50,200.00 L 663.50,143.00 L 657.00,133.50 L 639.00,130.50 L 587.00,130.50 L 576.50,140.00 L 564.50,197.00 L 560.00,202.50 L 536.00,209.50 L 507.00,223.50 L 500.00,223.50 L 446.00,185.50 L 434.00,184.50 L 389.50,226.00 L 385.50,235.00 L 386.50,242.00 L 421.50,296.00 L 405.00,324.50 L 198.00,158.50 L 156.50,213.00 L 133.50,256.00 L 108.50,326.00 L 97.50,386.00 L 95.50,457.00 L 103.50,519.00 L 119.50,578.00 L 145.50,637.00 L 182.50,695.00 L 224.50,744.00 L 277.00,790.50 L 322.00,820.50 L 383.00,850.50 L 448.00,870.50 L 517.00,881.50 L 568.50,882.00 Z" /></g><g fill="#bcbb7f" id="layer_1_bcbb7f" stroke="none"><path d="M 553.00,882.50 L 486.00,877.50 L 422.00,863.50 L 369.00,844.50 L 303.00,808.50 L 246.00,764.50 L 206.50,724.00 L 163.50,667.00 L 137.50,620.00 L 117.50,571.00 L 100.50,499.00 L 95.50,450.00 L 98.50,380.00 L 110.50,320.00 L 132.50,259.00 L 157.50,212.00 L 198.00,158.50 L 405.00,325.50 L 420.50,302.00 L 421.50,295.00 L 387.50,244.00 L 388.50,228.00 L 435.00,184.50 L 447.00,186.50 L 502.00,224.50 L 561.00,202.50 L 564.50,198.00 L 576.50,141.00 L 583.00,132.50 L 589.00,130.50 L 650.00,131.50 L 658.00,134.50 L 663.50,145.00 L 674.50,201.00 L 725.00,224.50 L 733.00,223.50 L 783.00,188.50 L 797.00,186.50 L 843.50,233.00 L 843.50,244.00 L 808.50,297.00 L 807.50,306.00 L 826.00,347.50 L 885.00,361.50 L 895.50,368.00 L 896.50,431.00 L 894.50,439.00 L 884.00,446.50 L 828.00,458.50 L 820.50,464.00 L 801.50,511.00 L 831.50,560.00 L 835.50,575.00 L 799.50,615.00 L 819.00,633.50 L 907.50,703.00 L 883.50,732.00 L 847.00,767.50 L 803.00,801.50 L 756.00,830.50 L 717.00,849.50 L 668.00,866.50 L 608.00,878.50 L 553.00,882.50 Z" /><path d="M 564.50,827.00 L 636.00,818.50 L 711.00,793.50 L 754.00,770.50 L 793.00,743.50 L 819.00,721.50 L 851.50,687.00 L 830.00,671.50 L 777.00,721.50 L 720.00,758.50 L 652.00,786.50 L 609.00,796.50 L 576.00,800.50 L 511.00,799.50 L 445.00,786.50 L 405.00,772.50 L 368.00,754.50 L 322.00,724.50 L 271.50,679.00 L 233.50,631.00 L 202.50,572.00 L 181.50,501.00 L 175.50,430.00 L 178.50,391.00 L 185.50,353.00 L 206.50,293.00 L 219.50,268.00 L 247.50,227.00 L 225.00,210.50 L 197.50,250.00 L 173.50,300.00 L 157.50,352.00 L 149.50,405.00 L 149.50,465.00 L 157.50,518.00 L 172.50,569.00 L 197.50,623.00 L 220.50,659.00 L 250.50,696.00 L 291.00,734.50 L 347.00,773.50 L 408.00,802.50 L 461.00,818.50 L 517.00,826.50 L 564.50,827.00 Z" /><path d="M 557.50,779.00 L 587.00,777.50 L 628.00,770.50 L 696.00,746.50 L 729.00,728.50 L 768.00,701.50 L 813.50,657.00 L 724.00,588.50 L 714.00,585.50 L 663.50,608.00 L 653.50,658.00 L 644.00,672.50 L 625.00,676.50 L 592.00,676.50 L 571.00,671.50 L 563.50,660.00 L 550.00,602.50 L 508.00,588.50 L 463.00,559.50 L 443.50,540.00 L 424.50,514.00 L 397.00,453.50 L 341.00,440.50 L 329.50,432.00 L 327.50,378.00 L 330.50,364.00 L 341.00,356.50 L 386.00,348.50 L 391.50,342.00 L 264.00,241.50 L 240.50,275.00 L 220.50,316.00 L 206.50,361.00 L 198.50,415.00 L 198.50,462.00 L 205.50,508.00 L 221.50,560.00 L 240.50,600.00 L 264.50,637.00 L 307.00,683.50 L 337.00,708.50 L 379.00,735.50 L 433.00,759.50 L 471.00,770.50 L 521.00,778.50 L 557.50,779.00 Z" /><path d="M 625.50,520.00 L 650.00,515.50 L 673.00,505.50 L 705.50,479.00 L 726.50,444.00 L 733.50,418.00 L 734.50,392.00 L 730.50,369.00 L 718.50,341.00 L 705.50,323.00 L 689.00,307.50 L 672.00,296.50 L 650.00,287.50 L 630.00,283.50 L 602.00,283.50 L 561.00,295.50 L 538.00,310.50 L 521.50,327.00 L 510.50,343.00 L 500.50,366.00 L 495.50,391.00 L 495.50,412.00 L 499.50,433.00 L 509.50,458.00 L 521.50,476.00 L 539.00,493.50 L 553.00,503.50 L 583.00,516.50 L 605.00,520.50 L 625.50,520.00 Z" /><path d="M 348.00,507.50 L 333.00,506.50 L 322.50,499.00 L 317.50,486.00 L 321.50,473.00 L 329.00,465.50 L 339.00,461.50 L 357.00,461.50 L 375.00,468.50 L 381.50,479.00 L 378.50,489.00 L 367.00,500.50 L 348.00,507.50 Z" /><path d="M 346.50,492.00 L 360.00,486.50 L 364.50,481.00 L 350.00,476.50 L 338.00,478.50 L 333.50,483.00 L 333.50,488.00 L 339.00,492.50 L 346.50,492.00 Z" /><path d="M 366.00,566.50 L 354.00,566.50 L 346.00,562.50 L 338.50,552.00 L 338.50,540.00 L 343.50,531.00 L 359.00,519.50 L 371.00,516.50 L 387.00,517.50 L 395.50,525.00 L 394.50,540.00 L 382.00,557.50 L 366.00,566.50 Z" /><path d="M 363.50,551.00 L 376.50,541.00 L 380.00,532.50 L 369.00,532.50 L 354.50,541.00 L 352.50,548.00 L 356.00,551.50 L 363.50,551.00 Z" /><path d="M 397.00,621.50 L 388.00,620.50 L 379.50,615.00 L 374.50,605.00 L 374.50,591.00 L 382.50,578.00 L 395.00,568.50 L 409.00,563.50 L 421.00,563.50 L 428.50,574.00 L 425.50,596.00 L 409.00,616.50 L 397.00,621.50 Z" /><path d="M 398.50,605.00 L 409.50,593.00 L 413.00,579.50 L 399.00,583.50 L 391.50,591.00 L 389.50,602.00 L 393.00,605.50 L 398.50,605.00 Z" /><path d="M 449.00,656.50 L 437.00,655.50 L 428.50,648.00 L 425.50,626.00 L 430.50,614.00 L 441.00,602.50 L 461.00,594.50 L 467.50,599.00 L 471.50,607.00 L 472.50,632.00 L 466.50,645.00 L 449.00,656.50 Z" /><path d="M 448.50,641.00 L 457.50,629.00 L 456.00,611.50 L 445.50,619.00 L 440.50,628.00 L 441.50,640.00 L 448.50,641.00 Z" /><path d="M 509.00,674.50 L 499.00,673.50 L 488.50,666.00 L 483.50,644.00 L 491.50,624.00 L 503.00,613.50 L 515.00,611.50 L 525.50,625.00 L 529.50,651.00 L 524.50,664.00 L 517.00,671.50 L 509.00,674.50 Z" /><path d="M 508.50,658.00 L 514.50,650.00 L 512.50,634.00 L 509.00,628.50 L 499.50,642.00 L 500.50,656.00 L 508.50,658.00 Z" /></g><g fill="#fccb64" id="layer_2_fccb64" stroke="none"><path d="M 557.00,779.50 L 521.00,778.50 L 471.00,770.50 L 433.00,759.50 L 379.00,735.50 L 337.00,708.50 L 307.00,683.50 L 264.50,637.00 L 240.50,600.00 L 221.50,560.00 L 205.50,508.00 L 198.50,462.00 L 198.50,415.00 L 206.50,361.00 L 220.50,316.00 L 240.50,275.00 L 264.00,241.50 L 391.50,342.00 L 386.00,348.50 L 341.00,356.50 L 330.50,364.00 L 327.50,378.00 L 329.50,432.00 L 341.00,440.50 L 397.00,453.50 L 424.50,514.00 L 443.50,540.00 L 463.00,559.50 L 508.00,588.50 L 550.00,602.50 L 563.50,660.00 L 571.00,671.50 L 592.00,676.50 L 625.00,676.50 L 644.00,672.50 L 653.50,658.00 L 663.50,608.00 L 714.00,585.50 L 724.00,588.50 L 813.50,657.00 L 768.00,701.50 L 737.00,723.50 L 696.00,746.50 L 628.00,770.50 L 557.00,779.50 Z" /><path d="M 348.50,507.00 L 367.00,500.50 L 378.50,489.00 L 381.50,479.00 L 375.00,468.50 L 357.00,461.50 L 339.00,461.50 L 329.00,465.50 L 321.50,473.00 L 317.50,486.00 L 322.50,499.00 L 333.00,506.50 L 348.50,507.00 Z" /><path d="M 366.50,566.00 L 382.00,557.50 L 394.50,540.00 L 396.50,528.00 L 387.00,517.50 L 371.00,516.50 L 359.00,519.50 L 347.50,527.00 L 338.50,540.00 L 338.50,552.00 L 346.00,562.50 L 354.00,566.50 L 366.50,566.00 Z" /><path d="M 397.50,621.00 L 409.00,616.50 L 425.50,596.00 L 428.50,574.00 L 421.00,563.50 L 409.00,563.50 L 395.00,568.50 L 382.50,578.00 L 374.50,591.00 L 374.50,605.00 L 379.50,615.00 L 388.00,620.50 L 397.50,621.00 Z" /><path d="M 449.50,656.00 L 466.50,645.00 L 472.50,632.00 L 471.50,607.00 L 467.50,599.00 L 461.00,594.50 L 441.00,602.50 L 430.50,614.00 L 425.50,626.00 L 428.50,648.00 L 437.00,655.50 L 449.50,656.00 Z" /><path d="M 509.50,674.00 L 517.00,671.50 L 524.50,664.00 L 529.50,651.00 L 525.50,625.00 L 515.00,611.50 L 503.00,613.50 L 491.50,624.00 L 483.50,644.00 L 488.50,666.00 L 499.00,673.50 L 509.50,674.00 Z" /></g><g fill="#f6eac0" id="layer_3_f6eac0" stroke="none"><path d="M 582.00,826.50 L 517.00,826.50 L 521.50,825.00 L 505.00,825.50 L 507.50,824.00 L 466.00,819.50 L 467.00,817.50 L 449.00,815.50 L 408.00,802.50 L 355.00,776.50 L 298.00,738.50 L 249.50,693.00 L 218.50,654.00 L 191.50,611.00 L 161.50,534.00 L 156.50,502.00 L 154.50,503.00 L 150.50,457.00 L 150.50,394.00 L 152.00,397.50 L 151.50,386.00 L 153.00,388.50 L 159.50,350.00 L 178.50,291.00 L 198.50,249.00 L 225.00,212.50 L 245.50,228.00 L 223.50,259.00 L 205.50,292.00 L 184.50,351.00 L 175.50,405.00 L 176.00,429.50 L 174.50,419.00 L 174.50,454.00 L 176.00,443.50 L 175.50,468.00 L 177.00,477.50 L 178.50,474.00 L 179.50,498.00 L 199.50,568.00 L 224.50,619.00 L 262.50,671.00 L 316.00,721.50 L 369.00,756.50 L 399.00,771.50 L 440.00,786.50 L 507.00,800.50 L 581.00,801.50 L 650.00,788.50 L 721.00,759.50 L 774.00,725.50 L 831.00,672.50 L 849.50,687.00 L 837.50,702.00 L 801.00,735.50 L 769.00,759.50 L 734.00,780.50 L 692.00,801.50 L 669.00,809.50 L 620.00,819.50 L 621.00,821.50 L 576.50,825.00 L 582.00,826.50 Z" /><path d="M 625.00,520.50 L 605.00,520.50 L 611.50,519.00 L 578.00,513.50 L 561.00,507.50 L 541.00,493.50 L 522.50,475.00 L 509.50,455.00 L 499.50,428.00 L 497.00,407.50 L 495.50,412.00 L 500.50,371.00 L 506.50,354.00 L 521.50,329.00 L 553.00,301.50 L 583.00,288.50 L 604.50,285.00 L 602.00,283.50 L 653.00,288.50 L 687.00,307.50 L 706.50,326.00 L 716.50,340.00 L 727.50,364.00 L 732.50,386.00 L 732.50,414.00 L 728.50,434.00 L 709.50,472.00 L 691.00,491.50 L 674.00,503.50 L 653.00,514.50 L 617.50,519.00 L 625.00,520.50 Z" /><path d="M 348.00,490.50 L 338.00,490.50 L 334.50,487.00 L 335.50,482.00 L 342.00,478.50 L 362.50,481.00 L 348.00,490.50 Z" /><path d="M 362.00,550.50 L 356.00,549.50 L 354.50,543.00 L 364.00,534.50 L 378.00,533.50 L 376.50,539.00 L 362.00,550.50 Z" /><path d="M 396.00,604.50 L 390.50,601.00 L 392.50,592.00 L 400.00,584.50 L 411.00,580.50 L 407.50,594.00 L 396.00,604.50 Z" /><path d="M 447.00,640.50 L 441.50,637.00 L 441.50,629.00 L 446.50,620.00 L 456.00,613.50 L 455.50,631.00 L 447.00,640.50 Z" /><path d="M 507.00,657.50 L 501.50,655.00 L 500.50,644.00 L 509.00,630.50 L 512.50,652.00 L 507.00,657.50 Z" /></g><g fill="#fcf6d3" id="layer_4_fcf6d3" stroke="none" /></svg>