<svg width="40" height="40" viewBox="0 0 1000 1000" xmlns="http://www.w3.org/2000/svg">
<g fill="#b5a882" id="layer_1_b5a882" stroke="none"><path d="M 557.00,779.50 L 521.00,778.50 L 471.00,770.50 L 433.00,759.50 L 379.00,735.50 L 337.00,708.50 L 307.00,683.50 L 264.50,637.00 L 240.50,600.00 L 221.50,560.00 L 205.50,508.00 L 198.50,462.00 L 198.50,415.00 L 206.50,361.00 L 220.50,316.00 L 240.50,275.00 L 264.00,241.50 L 307.00,216.50 L 337.00,191.50 L 379.00,164.50 L 433.00,140.50 L 471.00,129.50 L 521.00,121.50 L 557.00,120.50 L 628.00,129.50 L 696.00,153.50 L 737.00,176.50 L 768.00,198.50 L 813.50,243.00 L 837.50,280.00 L 856.50,320.00 L 872.50,372.00 L 879.50,418.00 L 879.50,465.00 L 871.50,519.00 L 857.50,564.00 L 837.50,605.00 L 813.00,639.50 L 768.00,701.50 L 737.00,723.50 L 696.00,746.50 L 628.00,770.50 L 557.00,779.50 Z" /><path d="M 348.50,507.00 L 367.00,500.50 L 378.50,489.00 L 381.50,479.00 L 375.00,468.50 L 357.00,461.50 L 339.00,461.50 L 329.00,465.50 L 321.50,473.00 L 317.50,486.00 L 322.50,499.00 L 333.00,506.50 L 348.50,507.00 Z" /><path d="M 366.50,566.00 L 382.00,557.50 L 394.50,540.00 L 396.50,528.00 L 387.00,517.50 L 371.00,516.50 L 359.00,519.50 L 347.50,527.00 L 338.50,540.00 L 338.50,552.00 L 346.00,562.50 L 354.00,566.50 L 366.50,566.00 Z" /><path d="M 397.50,621.00 L 409.00,616.50 L 425.50,596.00 L 428.50,574.00 L 421.00,563.50 L 409.00,563.50 L 395.00,568.50 L 382.50,578.00 L 374.50,591.00 L 374.50,605.00 L 379.50,615.00 L 388.00,620.50 L 397.50,621.00 Z" /><path d="M 398.50,605.00 L 409.50,593.00 L 413.00,579.50 L 399.00,583.50 L 391.50,591.00 L 389.50,602.00 L 393.00,605.50 L 398.50,605.00 Z" /><path d="M 449.00,656.50 L 437.00,655.50 L 428.50,648.00 L 425.50,626.00 L 430.50,614.00 L 441.00,602.50 L 461.00,594.50 L 467.50,599.00 L 471.50,607.00 L 472.50,632.00 L 466.50,645.00 L 449.00,656.50 Z" /><path d="M 448.50,641.00 L 457.50,629.00 L 456.00,611.50 L 445.50,619.00 L 440.50,628.00 L 441.50,640.00 L 448.50,641.00 Z" /><path d="M 509.00,674.50 L 499.00,673.50 L 488.50,666.00 L 483.50,644.00 L 491.50,624.00 L 503.00,613.50 L 515.00,611.50 L 525.50,625.00 L 529.50,651.00 L 524.50,664.00 L 517.00,671.50 L 509.00,674.50 Z" /><path d="M 508.50,658.00 L 514.50,650.00 L 512.50,634.00 L 509.00,628.50 L 499.50,642.00 L 500.50,656.00 L 508.50,658.00 Z" /></g><g fill="#fccb64" id="layer_2_fccb64" stroke="none"><path d="M 557.00,779.50 L 521.00,778.50 L 471.00,770.50 L 433.00,759.50 L 379.00,735.50 L 337.00,708.50 L 307.00,683.50 L 264.50,637.00 L 240.50,600.00 L 221.50,560.00 L 205.50,508.00 L 198.50,462.00 L 198.50,415.00 L 206.50,361.00 L 220.50,316.00 L 240.50,275.00 L 264.00,241.50 L 391.50,342.00 L 386.00,348.50 L 341.00,356.50 L 330.50,364.00 L 327.50,378.00 L 329.50,432.00 L 341.00,440.50 L 397.00,453.50 L 424.50,514.00 L 443.50,540.00 L 463.00,559.50 L 508.00,588.50 L 550.00,602.50 L 563.50,660.00 L 571.00,671.50 L 592.00,676.50 L 625.00,676.50 L 644.00,672.50 L 653.50,658.00 L 663.50,608.00 L 714.00,585.50 L 724.00,588.50 L 813.50,657.00 L 768.00,701.50 L 737.00,723.50 L 696.00,746.50 L 628.00,770.50 L 557.00,779.50 Z" /><path d="M 348.50,507.00 L 367.00,500.50 L 378.50,489.00 L 381.50,479.00 L 375.00,468.50 L 357.00,461.50 L 339.00,461.50 L 329.00,465.50 L 321.50,473.00 L 317.50,486.00 L 322.50,499.00 L 333.00,506.50 L 348.50,507.00 Z" /><path d="M 366.50,566.00 L 382.00,557.50 L 394.50,540.00 L 396.50,528.00 L 387.00,517.50 L 371.00,516.50 L 359.00,519.50 L 347.50,527.00 L 338.50,540.00 L 338.50,552.00 L 346.00,562.50 L 354.00,566.50 L 366.50,566.00 Z" /><path d="M 397.50,621.00 L 409.00,616.50 L 425.50,596.00 L 428.50,574.00 L 421.00,563.50 L 409.00,563.50 L 395.00,568.50 L 382.50,578.00 L 374.50,591.00 L 374.50,605.00 L 379.50,615.00 L 388.00,620.50 L 397.50,621.00 Z" /><path d="M 449.50,656.00 L 466.50,645.00 L 472.50,632.00 L 471.50,607.00 L 467.50,599.00 L 461.00,594.50 L 441.00,602.50 L 430.50,614.00 L 425.50,626.00 L 428.50,648.00 L 437.00,655.50 L 449.50,656.00 Z" /><path d="M 509.50,674.00 L 517.00,671.50 L 524.50,664.00 L 529.50,651.00 L 525.50,625.00 L 515.00,611.50 L 503.00,613.50 L 491.50,624.00 L 483.50,644.00 L 488.50,666.00 L 499.00,673.50 L 509.50,674.00 Z" /></g><g fill="#f6eac0" id="layer_3_f6eac0" stroke="none"><path d="M 582.00,826.50 L 517.00,826.50 L 521.50,825.00 L 505.00,825.50 L 507.50,824.00 L 466.00,819.50 L 467.00,817.50 L 449.00,815.50 L 408.00,802.50 L 355.00,776.50 L 298.00,738.50 L 249.50,693.00 L 218.50,654.00 L 191.50,611.00 L 161.50,534.00 L 156.50,502.00 L 154.50,503.00 L 150.50,457.00 L 150.50,394.00 L 152.00,397.50 L 151.50,386.00 L 153.00,388.50 L 159.50,350.00 L 178.50,291.00 L 198.50,249.00 L 225.00,212.50 L 245.50,228.00 L 223.50,259.00 L 205.50,292.00 L 184.50,351.00 L 175.50,405.00 L 176.00,429.50 L 174.50,419.00 L 174.50,454.00 L 176.00,443.50 L 175.50,468.00 L 177.00,477.50 L 178.50,474.00 L 179.50,498.00 L 199.50,568.00 L 224.50,619.00 L 262.50,671.00 L 316.00,721.50 L 369.00,756.50 L 399.00,771.50 L 440.00,786.50 L 507.00,800.50 L 581.00,801.50 L 650.00,788.50 L 721.00,759.50 L 774.00,725.50 L 831.00,672.50 L 849.50,687.00 L 837.50,702.00 L 801.00,735.50 L 769.00,759.50 L 734.00,780.50 L 692.00,801.50 L 669.00,809.50 L 620.00,819.50 L 621.00,821.50 L 576.50,825.00 L 582.00,826.50 Z" /><path d="M 625.00,520.50 L 605.00,520.50 L 611.50,519.00 L 578.00,513.50 L 561.00,507.50 L 541.00,493.50 L 522.50,475.00 L 509.50,455.00 L 499.50,428.00 L 497.00,407.50 L 495.50,412.00 L 500.50,371.00 L 506.50,354.00 L 521.50,329.00 L 553.00,301.50 L 583.00,288.50 L 604.50,285.00 L 602.00,283.50 L 653.00,288.50 L 687.00,307.50 L 706.50,326.00 L 716.50,340.00 L 727.50,364.00 L 732.50,386.00 L 732.50,414.00 L 728.50,434.00 L 709.50,472.00 L 691.00,491.50 L 674.00,503.50 L 653.00,514.50 L 617.50,519.00 L 625.00,520.50 Z" /><path d="M 348.00,490.50 L 338.00,490.50 L 334.50,487.00 L 335.50,482.00 L 342.00,478.50 L 362.50,481.00 L 348.00,490.50 Z" /><path d="M 362.00,550.50 L 356.00,549.50 L 354.50,543.00 L 364.00,534.50 L 378.00,533.50 L 376.50,539.00 L 362.00,550.50 Z" /><path d="M 396.00,604.50 L 390.50,601.00 L 392.50,592.00 L 400.00,584.50 L 411.00,580.50 L 407.50,594.00 L 396.00,604.50 Z" /><path d="M 447.00,640.50 L 441.50,637.00 L 441.50,629.00 L 446.50,620.00 L 456.00,613.50 L 455.50,631.00 L 447.00,640.50 Z" /><path d="M 507.00,657.50 L 501.50,655.00 L 500.50,644.00 L 509.00,630.50 L 512.50,652.00 L 507.00,657.50 Z" /></g><g fill="#fcf6d3" id="layer_4_fcf6d3" stroke="none" /></svg>

